<svg width="200" height="200" viewBox="0 0 240 200" xmlns="http://www.w3.org/2000/svg">
  <defs>
    <linearGradient id="windGrad" x1="0" y1="0" x2="1" y2="1">
      <stop offset="0%" stop-color="#6366F1"/>
      <stop offset="100%" stop-color="#818CF8"/>
    </linearGradient>
    
    <linearGradient id="cardGrad1" x1="0" y1="0" x2="0" y2="1">
      <stop offset="0%" stop-color="#ffffff"/>
      <stop offset="100%" stop-color="#f3f4f6"/>
    </linearGradient>
    
    <filter id="shadow" x="-20%" y="-20%" width="140%" height="140%">
      <feGaussianBlur in="SourceAlpha" stdDeviation="2"/>
      <feOffset dx="1" dy="1"/>
      <feComponentTransfer>
        <feFuncA type="linear" slope="0.2"/>
      </feComponentTransfer>
      <feMerge>
        <feMergeNode/>
        <feMergeNode in="SourceGraphic"/>
      </feMerge>
    </filter>
  </defs>

  <!-- Wind gusts -->
  <g filter="url(#shadow)">
    <!-- Main gust -->
    <path d="M10,90 C20,85 30,95 50,85 S80,95 100,80 S130,95 160,85 S190,95 220,85" 
          fill="none" 
          stroke="url(#windGrad)" 
          stroke-width="25" 
          stroke-linecap="round"
          opacity="0.6"/>
    
    <!-- Upper gust -->
    <path d="M15,60 C30,55 40,70 60,55 S90,70 110,55 S140,70 170,60 S195,70 215,60" 
          fill="none" 
          stroke="url(#windGrad)" 
          stroke-width="20" 
          stroke-linecap="round"
          opacity="0.4"/>
    
    <!-- Lower gust -->
    <path d="M5,120 C20,115 30,130 50,115 S80,130 100,115 S130,130 150,115 S180,130 200,115" 
          fill="none" 
          stroke="url(#windGrad)" 
          stroke-width="22" 
          stroke-linecap="round"
          opacity="0.5"/>
    
    <!-- Small detail gusts -->
    <path d="M20,150 C40,145 50,155 70,145 S100,155 120,145" 
          fill="none" 
          stroke="url(#windGrad)" 
          stroke-width="15" 
          stroke-linecap="round"
          opacity="0.3"/>
  </g>

  <!-- Cards -->
  <g filter="url(#shadow)">
    <!-- First card -->
    <rect x="40" y="70" width="30" height="45" 
          fill="url(#cardGrad1)" 
          stroke="#6366F1" 
          stroke-width="2" 
          rx="3"
          transform="rotate(-15, 55, 92)"/>
    
    <!-- Second card -->
    <rect x="85" y="95" width="30" height="45" 
          fill="url(#cardGrad1)" 
          stroke="#6366F1" 
          stroke-width="2" 
          rx="3"
          transform="rotate(-5, 100, 117)"/>
    
    <!-- Third card -->
    <rect x="130" y="75" width="30" height="45" 
          fill="url(#cardGrad1)" 
          stroke="#6366F1" 
          stroke-width="2" 
          rx="3"
          transform="rotate(5, 145, 97)"/>
  </g>
</svg>